PathFileType	4	(X/Y/Z)	./trials/Ivanov/data/jump_js_1.trc
DataRate	CameraRate	NumFrames	NumMarkers	Units	OrigDataRate	OrigDataStartFrame	OrigNumFrames
400	400	6	71	mm	400	107	285
Frame#	Time	r_illiac			r_troch			r_asis			l_illiac			l_troch			l_asis			r_psis			sacrum			l_psis			r_thigh1			r_thigh2			r_thigh3			r_thigh4			rl_knee			rm_knee			r_shank1			r_shank2			r_shank3			r_shank4			r_heel			rl_ankle			rm_ankle			r_metatarsal5			r_metatarsal1			l_thigh1			l_thigh2			l_thigh3			l_thigh4			ll_knee			lm_knee			l_shank1			l_shank2			l_shank3			l_shank4			l_heel			ll_ankle			lm_ankle			l_metatarsal5			l_metatarsal1			back_down			neck			back_right			back_left			head_up			head_front			head_left			head_right			r_shoulder			r_humerus1			r_humerus2			r_humerus3			rl_elbow			rm_elbow			r_radius1			r_radius2			r_radius3			rl_wrist			rm_wrist			r_hand			l_shoulder			l_humerus1			l_humerus2			l_humerus3			ll_elbow			lm_elbow			l_radius1			l_radius2			l_radius3			ll_wrist			lm_wrist			l_hand		
		X1	Y1	Z1	X2	Y2	Z2	X3	Y3	Z3	X4	Y4	Z4	X5	Y5	Z5	X6	Y6	Z6	X7	Y7	Z7	X8	Y8	Z8	X9	Y9	Z9	X10	Y10	Z10	X11	Y11	Z11	X12	Y12	Z12	X13	Y13	Z13	X14	Y14	Z14	X15	Y15	Z15	X16	Y16	Z16	X17	Y17	Z17	X18	Y18	Z18	X19	Y19	Z19	X20	Y20	Z20	X21	Y21	Z21	X22	Y22	Z22	X23	Y23	Z23	X24	Y24	Z24	X25	Y25	Z25	X26	Y26	Z26	X27	Y27	Z27	X28	Y28	Z28	X29	Y29	Z29	X30	Y30	Z30	X31	Y31	Z31	X32	Y32	Z32	X33	Y33	Z33	X34	Y34	Z34	X35	Y35	Z35	X36	Y36	Z36	X37	Y37	Z37	X38	Y38	Z38	X39	Y39	Z39	X40	Y40	Z40	X41	Y41	Z41	X42	Y42	Z42	X43	Y43	Z43	X44	Y44	Z44	X45	Y45	Z45	X46	Y46	Z46	X47	Y47	Z47	X48	Y48	Z48	X49	Y49	Z49	X50	Y50	Z50	X51	Y51	Z51	X52	Y52	Z52	X53	Y53	Z53	X54	Y54	Z54	X55	Y55	Z55	X56	Y56	Z56	X57	Y57	Z57	X58	Y58	Z58	X59	Y59	Z59	X60	Y60	Z60	X61	Y61	Z61	X62	Y62	Z62	X63	Y63	Z63	X64	Y64	Z64	X65	Y65	Z65	X66	Y66	Z66	X67	Y67	Z67	X68	Y68	Z68	X69	Y69	Z69	X70	Y70	Z70	X71	Y71	Z71
107	0.2650	-442.745	786.956	573.064	-464.541	651.216	623.394	-406.711	725.230	545.311	-445.439	791.755	225.772	-524.561	674.776	187.020	-412.183	724.074	261.846	-551.366	834.497	456.245	-528.046	857.016	407.413	-560.256	834.020	357.559	-370.271	589.809	603.837	-335.203	655.761	579.833	-230.080	586.435	583.436	-258.357	539.378	603.437	-149.499	452.869	586.441	-152.078	447.194	441.886	-215.597	368.840	607.842	-155.128	337.489	581.760	-212.705	242.923	572.564	-262.089	270.163	601.263	-449.138	40.398	538.274	-364.897	92.313	582.282	-347.249	100.306	473.611	-231.121	40.015	598.586	-210.001	54.274	510.522	-405.806	616.279	190.878	-366.458	669.187	214.156	-264.692	600.864	201.599	-302.200	547.497	181.661	-178.162	457.921	184.860	-168.318	426.478	317.458	-252.947	391.373	172.295	-190.165	359.421	175.439	-241.605	266.672	179.804	-296.249	289.221	174.499	-454.905	49.332	238.636	-370.161	86.165	194.064	-348.821	94.980	303.346	-238.878	38.702	168.773	-211.676	47.756	264.068	-430.116	942.646	399.041	-195.770	1156.720	385.524	-299.651	1065.691	502.804	-294.487	1056.878	268.950	-90.911	1383.414	378.561	44.052	1314.155	374.167	-62.396	1287.510	282.383	-63.441	1303.841	474.538	-74.705	1091.352	572.340	-137.258	930.423	654.882	-147.173	1032.045	736.458	-187.400	936.677	746.777	-259.497	874.592	800.690	-331.012	953.560	795.644	-310.987	817.622	697.319	-343.845	793.210	811.315	-382.138	758.551	722.445	-477.703	778.225	662.370	-451.318	701.764	714.837	-437.700	731.338	645.480	-86.790	1102.367	203.881	-132.779	926.910	137.697	-146.822	1025.012	51.966	-184.778	930.894	48.662	-271.144	866.435	-25.815	-322.319	948.779	-9.832	-337.274	824.414	108.093	-367.234	754.470	1.037	-410.281	753.305	92.652	-481.780	786.672	140.047	-452.695	710.866	93.639	-451.712	732.044	154.153
108	0.2675	-441.731	789.616	572.941	-463.158	653.155	623.063	-405.349	727.506	545.184	-444.641	794.287	225.971	-523.328	676.555	187.332	-410.677	726.608	261.848	-550.322	836.850	456.270	-527.131	859.490	407.372	-559.293	836.219	357.401	-369.145	591.065	603.619	-333.580	656.999	579.693	-228.916	586.981	583.102	-257.424	540.120	603.099	-149.131	452.987	585.984	-151.889	447.279	441.477	-215.382	368.906	607.497	-155.377	337.800	581.392	-212.552	242.949	572.252	-261.889	270.267	600.933	-449.067	40.504	538.248	-364.755	92.360	582.211	-347.135	100.275	473.513	-231.004	39.966	598.583	-209.904	54.046	510.522	-404.320	617.629	191.188	-364.641	670.403	214.360	-263.301	601.251	201.759	-300.540	548.554	181.982	-177.584	458.023	185.504	-167.716	426.451	318.211	-252.604	391.417	172.883	-189.862	359.409	175.994	-241.297	266.658	180.233	-295.969	289.286	175.018	-454.828	49.442	238.609	-370.065	86.196	194.090	-348.733	94.974	303.418	-238.744	38.617	168.754	-211.535	47.633	264.044	-428.640	944.500	399.243	-196.711	1161.158	385.616	-300.230	1069.451	502.730	-295.043	1060.875	268.949	-92.661	1388.562	378.619	42.490	1319.623	373.890	-64.093	1292.641	282.405	-64.744	1309.002	474.557	-75.321	1096.478	572.282	-137.589	935.258	654.839	-147.945	1037.209	736.246	-187.555	941.451	746.611	-259.197	878.861	800.469	-331.427	957.532	795.000	-310.228	821.479	697.276	-343.128	797.126	811.265	-381.096	762.106	722.504	-476.512	780.618	662.115	-449.763	704.430	714.961	-436.594	733.540	645.239	-87.600	1107.643	203.894	-132.694	931.930	137.719	-147.780	1030.063	52.140	-185.326	935.736	48.980	-271.515	870.875	-25.324	-323.168	952.826	-9.067	-336.815	827.314	108.094	-366.632	758.085	1.110	-409.656	756.202	92.785	-481.106	788.762	140.376	-451.849	713.441	93.593	-450.804	734.256	154.032
109	0.2700	-440.564	792.237	572.853	-462.476	655.003	622.611	-404.004	729.777	545.043	-443.795	797.152	226.140	-522.021	678.507	187.738	-409.186	729.252	261.859	-549.325	839.375	456.303	-526.211	862.025	407.375	-557.860	837.767	357.637	-367.900	592.464	603.454	-331.898	658.296	579.009	-227.747	587.523	582.826	-256.596	540.797	602.744	-148.729	453.139	585.571	-151.715	447.388	441.084	-215.169	368.986	607.162	-155.160	337.785	581.133	-212.383	242.952	571.972	-262.346	269.719	601.005	-448.969	40.645	538.245	-364.638	92.423	582.176	-347.019	100.252	473.427	-230.878	39.878	598.594	-209.742	53.925	510.515	-403.194	618.888	191.657	-362.830	671.756	214.536	-261.920	601.883	202.129	-300.033	549.033	182.631	-176.999	458.025	186.213	-167.530	426.281	318.858	-252.253	391.566	173.480	-189.557	359.415	176.586	-241.002	266.749	180.614	-295.688	289.383	175.498	-454.733	49.553	238.604	-369.933	86.297	194.123	-348.616	94.952	303.472	-238.628	38.527	168.732	-211.393	47.483	264.006	-428.230	947.380	399.228	-197.777	1165.710	385.672	-300.612	1073.176	502.498	-295.555	1064.758	269.049	-94.350	1393.736	378.646	40.932	1325.172	373.660	-65.790	1297.911	282.412	-65.983	1314.217	474.542	-76.042	1101.813	572.254	-137.568	940.384	654.735	-148.763	1042.460	735.970	-187.809	946.643	746.464	-259.157	883.549	800.319	-331.914	961.615	794.365	-309.518	825.286	697.239	-342.384	801.241	811.242	-379.944	765.540	722.572	-475.280	783.188	661.771	-447.800	707.363	715.217	-435.245	735.894	644.962	-88.407	1112.984	203.891	-132.856	937.011	137.768	-148.744	1035.192	52.352	-185.909	940.715	49.312	-271.951	875.497	-24.814	-324.030	956.947	-8.278	-336.561	830.804	108.409	-366.057	761.951	1.165	-408.827	759.327	92.903	-480.420	791.082	140.820	-450.811	716.213	93.572	-449.583	736.398	153.943
110	0.2725	-439.608	795.134	572.751	-466.031	655.727	620.919	-402.479	732.119	544.841	-442.815	799.843	226.265	-520.660	680.349	188.098	-407.514	731.728	261.843	-548.293	841.863	456.331	-525.291	864.667	407.342	-556.776	840.219	357.640	-364.540	593.755	604.183	-330.334	659.550	578.878	-226.557	588.034	582.815	-255.742	541.510	602.423	-148.336	453.337	585.187	-151.564	447.481	440.724	-214.995	369.066	606.873	-155.039	337.834	580.806	-212.210	242.999	571.679	-262.075	269.938	600.740	-448.894	40.759	538.220	-364.475	92.463	582.108	-346.912	100.247	473.345	-230.760	39.836	598.584	-209.617	53.766	510.491	-401.572	620.440	191.863	-360.940	673.044	214.673	-260.625	602.588	202.666	-298.433	550.178	182.919	-176.412	458.011	186.922	-167.460	426.047	319.496	-251.964	391.667	174.109	-189.260	359.479	177.102	-240.746	266.817	181.021	-295.430	289.516	175.862	-454.637	49.629	238.598	-369.795	86.323	194.160	-349.148	94.490	303.886	-238.461	38.415	168.699	-211.247	47.316	263.987	-427.856	950.344	399.254	-198.748	1170.202	385.714	-301.220	1077.105	502.497	-296.082	1068.825	269.164	-96.123	1398.960	378.746	39.372	1330.780	373.412	-67.019	1303.747	281.800	-67.284	1319.558	474.559	-76.672	1107.150	572.191	-137.052	945.731	654.831	-149.543	1047.780	735.696	-188.178	951.667	746.298	-259.303	888.528	800.191	-332.422	965.861	793.743	-308.759	829.068	697.214	-341.756	805.532	811.214	-378.713	769.094	722.570	-473.850	785.618	661.361	-446.132	710.294	715.277	-433.827	738.443	644.686	-89.282	1118.514	203.907	-133.071	942.340	137.799	-149.599	1040.438	52.471	-186.427	945.912	49.564	-272.284	880.247	-24.341	-324.843	961.227	-7.544	-336.198	834.248	108.685	-365.477	765.895	1.175	-408.119	762.415	92.887	-479.373	792.935	140.824	-449.599	719.364	93.798	-448.448	738.780	153.894
111	0.2750	-438.459	797.846	572.673	-464.897	657.665	620.474	-401.036	734.501	544.577	-442.020	802.858	226.504	-519.199	682.262	188.490	-405.970	734.805	261.900	-547.215	844.427	456.268	-524.316	867.308	407.323	-555.678	842.705	357.615	-363.688	595.330	603.946	-328.724	660.761	578.715	-225.186	588.675	582.589	-254.952	542.178	602.089	-147.987	453.546	584.820	-151.327	447.663	440.396	-214.861	369.095	606.588	-154.429	337.527	580.592	-211.983	243.098	571.450	-261.691	270.309	600.531	-448.830	40.887	538.192	-364.347	92.561	582.069	-346.773	100.237	473.289	-230.627	39.784	598.565	-209.389	53.616	510.539	-399.659	622.273	191.723	-359.243	674.249	214.921	-259.293	603.375	203.223	-297.320	551.129	183.348	-175.865	458.099	187.550	-167.219	425.931	320.163	-251.727	391.700	174.687	-188.962	359.611	177.566	-240.518	266.879	181.437	-295.179	289.582	176.310	-454.531	49.762	238.593	-369.687	86.391	194.183	-348.966	94.488	303.949	-238.304	38.313	168.693	-211.126	47.153	263.965	-427.474	953.538	399.375	-199.823	1174.819	385.740	-301.822	1081.029	502.423	-296.645	1072.912	269.307	-97.830	1404.266	378.882	37.794	1336.490	373.177	-68.790	1309.180	281.777	-68.783	1324.506	474.234	-77.443	1112.540	572.187	-137.006	950.984	654.792	-150.397	1053.258	735.439	-188.433	956.892	746.121	-259.329	893.380	800.002	-332.939	969.976	792.970	-307.978	833.124	697.170	-341.189	809.930	811.201	-377.528	772.859	722.600	-472.569	788.344	660.939	-444.769	713.577	715.435	-432.710	741.007	644.491	-90.140	1124.335	203.773	-133.324	947.800	137.808	-150.656	1046.050	52.720	-186.984	951.246	49.832	-272.710	885.191	-23.848	-325.794	965.683	-6.692	-335.901	838.102	108.976	-364.864	769.994	1.134	-407.412	765.614	92.990	-478.319	795.799	141.614	-448.493	722.456	93.776	-446.006	740.795	153.877
112	0.2775	-437.404	800.844	572.570	-463.937	659.905	620.094	-399.432	736.604	544.263	-441.239	805.858	226.722	-517.709	684.193	188.891	-404.344	737.414	262.004	-546.145	846.968	456.301	-523.356	869.994	407.281	-554.522	845.360	357.600	-363.167	596.879	603.408	-327.131	662.045	578.622	-224.048	589.275	582.338	-254.090	542.943	601.788	-147.685	453.730	584.484	-151.080	447.824	440.076	-214.759	369.130	606.312	-154.240	337.593	580.402	-211.894	243.090	571.246	-261.315	270.471	599.840	-448.724	40.992	538.180	-364.216	92.653	582.040	-346.630	100.226	473.206	-230.511	39.733	598.570	-209.239	53.404	510.538	-397.974	623.994	191.946	-357.344	675.676	215.130	-258.019	604.102	203.641	-296.295	552.147	183.744	-175.303	458.259	188.146	-168.325	425.136	320.592	-251.495	391.824	175.315	-188.704	359.702	178.037	-240.245	266.980	181.795	-294.940	289.561	176.862	-454.401	49.884	238.591	-369.542	86.441	194.217	-348.597	94.508	303.933	-238.138	38.211	168.661	-210.988	46.946	263.983	-427.088	956.627	399.350	-200.961	1179.514	385.783	-302.482	1085.132	502.425	-297.258	1077.050	269.421	-99.506	1409.726	379.071	36.179	1342.196	372.887	-70.540	1314.780	281.768	-70.168	1329.948	474.267	-78.063	1118.053	572.045	-137.030	956.400	654.735	-151.185	1058.828	735.150	-188.707	962.311	745.981	-259.357	898.424	799.861	-333.452	974.380	792.348	-307.082	837.404	697.125	-340.557	814.505	811.174	-376.321	776.677	722.637	-471.147	790.983	660.439	-443.101	716.782	715.552	-431.273	743.423	644.512	-91.226	1130.058	203.758	-133.377	953.475	137.748	-151.772	1051.682	52.972	-187.680	956.677	50.167	-273.120	890.220	-23.425	-326.788	970.321	-5.784	-335.047	841.644	109.312	-364.142	774.263	1.085	-406.621	769.110	93.030	-477.639	798.205	141.803	-447.263	725.386	93.711	-444.872	743.309	153.786
